<svg width="28" height="28" viewBox="0 0 32 32" fill="none" xmlns="http://www.w3.org/2000/svg">
<path d="M27.111 8.72796V24.7276H28.5V8.72796H27.111Z" fill="black"/>
<path d="M25.7215 27.6362H27.111L27.111 24.7276L25.7215 24.7276V27.6362Z" fill="black"/>
<path d="M24.3329 30.5453H25.7215L25.7215 27.6362H24.3329V30.5453Z" fill="black"/>
<path d="M24.3329 16V8.72796L27.111 8.72796L27.111 7.27324H24.3329V2.90905H22.9438V16H24.3329Z" fill="black"/>
<path d="M11.8335 32H24.3329L24.3329 30.5453L11.8335 30.5453V32Z" fill="black"/>
<path d="M20.1661 16V2.90905L22.9438 2.90905L22.9438 1.45472H18.7775V16H20.1661Z" fill="black"/>
<path d="M18.7775 0H16.0002V1.45473L18.7775 1.45472L18.7775 0Z" fill="black"/>
<path d="M14.6112 16H16.0002V1.45473L14.6112 1.45472V2.90905H11.8335V4.36378H14.6112V16Z" fill="black"/>
<path d="M10.4448 27.6362V30.5453L11.8335 30.5453L11.8335 27.6362H10.4448Z" fill="black"/>
<path d="M9.05577 26.1823V27.6362H10.4448L10.4448 26.1823H9.05577Z" fill="black"/>
<path d="M10.4448 18.909V20.3634H11.8335V4.36378L10.4448 4.36378V17.4543H9.05577V18.909H10.4448Z" fill="black"/>
<path d="M7.66635 24.7276V26.1823H9.05577L9.05577 24.7276H7.66635Z" fill="black"/>
<path d="M9.05577 17.4543L9.05577 16H7.66635V17.4543L9.05577 17.4543Z" fill="black"/>
<path d="M6.27769 21.8181V24.7276L7.66635 24.7276L7.66635 21.8181H6.27769Z" fill="black"/>
<path d="M7.66635 14.5453H4.88865V16L7.66635 16L7.66635 14.5453Z" fill="black"/>
<path d="M4.88865 18.909V21.8181L6.27769 21.8181L6.27769 18.909H4.88865Z" fill="black"/>
<path d="M3.5 16V18.9091L4.88865 18.909V16L3.5 16Z" fill="black"/>
<path d="M27.111 24.7276V8.72796L24.3329 8.72796V16H22.9438V2.90905L20.1661 2.90905V16H18.7775V1.45472L16.0002 1.45473V16H14.6112V4.36378H11.8335V20.3634H10.4448V18.909H9.05577V17.4543L7.66635 17.4543V16L4.88865 16V18.909H6.27769L6.27769 21.8181H7.66635L7.66635 24.7276H9.05577L9.05577 26.1823H10.4448L10.4448 27.6362H11.8335L11.8335 30.5453L24.3329 30.5453V27.6362H25.7215V24.7276L27.111 24.7276Z" fill="white"/>
</svg>
