<svg width="28" height="28" viewBox="0 0 32 32" fill="none" xmlns="http://www.w3.org/2000/svg">
<path d="M27.1104 13.6473V22.1172H28.5V13.6473H27.1104Z" fill="black"/>
<path d="M25.7215 26.3524H27.1104L27.1104 22.1172H25.7215V26.3524Z" fill="black"/>
<path d="M27.1104 13.6473L27.1104 12.2355H25.7215V13.6473L27.1104 13.6473Z" fill="black"/>
<path d="M24.3323 30.5879H11.8336V27.7637H10.4447V32H25.7215L25.7215 26.3524L24.3323 26.3524V30.5879Z" fill="black"/>
<path d="M24.3323 17.8824V12.2355L25.7215 12.2355L25.7215 10.8231H22.9438V17.8824H24.3323Z" fill="black"/>
<path d="M20.1664 16.4707V10.8231L22.9438 10.8231L22.9438 9.41172H18.7772V16.4707H20.1664Z" fill="black"/>
<path d="M18.7772 8H15.9998V9.41172L18.7772 9.41172V8Z" fill="black"/>
<path d="M15.9998 16.4707L15.9998 9.41172L14.6109 9.41172V16.4707H15.9998Z" fill="black"/>
<path d="M14.611 8H11.8336V9.41172L14.6109 9.41172L14.611 8Z" fill="black"/>
<path d="M9.0551 26.3524V27.7637L10.4447 27.7637L10.4447 26.3524H9.0551Z" fill="black"/>
<path d="M10.4447 17.8824V19.2941H11.8336L11.8336 9.41172L10.4447 9.41172V16.4707H9.0551V17.8824H10.4447Z" fill="black"/>
<path d="M7.66587 23.5289V26.3524L9.0551 26.3524V23.5289H7.66587Z" fill="black"/>
<path d="M9.0551 16.4707V15.0593H7.66587V16.4707L9.0551 16.4707Z" fill="black"/>
<path d="M6.27738 20.7059V23.5289L7.66587 23.5289L7.66588 20.7059H6.27738Z" fill="black"/>
<path d="M7.66587 13.6473H4.88851V15.0593L7.66587 15.0593L7.66587 13.6473Z" fill="black"/>
<path d="M4.88851 17.8824V20.7059L6.27738 20.7059L6.27737 17.8824H4.88851Z" fill="black"/>
<path d="M3.5 15.0594V17.8824L4.88851 17.8824V15.0593L3.5 15.0594Z" fill="black"/>
<path d="M27.1104 22.1172V13.6473L25.7215 13.6473V12.2355L24.3323 12.2355V17.8824H22.9438V10.8231L20.1664 10.8231V16.4707H18.7772V9.41172L15.9998 9.41172L15.9998 16.4707H14.6109V9.41172L11.8336 9.41172L11.8336 19.2941H10.4447V17.8824H9.0551V16.4707L7.66587 16.4707V15.0593L4.88851 15.0593V17.8824H6.27737L6.27738 20.7059H7.66588L7.66587 23.5289H9.0551V26.3524H10.4447L10.4447 27.7637H11.8336V30.5879H24.3323V26.3524L25.7215 26.3524V22.1172H27.1104Z" fill="white"/>
</svg>
