<svg width="1079" height="499" viewBox="0 0 1079 499" fill="none" xmlns="http://www.w3.org/2000/svg">
<path d="M244.184 52H184.521C180.599 52 177.419 55.18 177.419 59.1027V118.766C177.419 122.688 180.599 125.868 184.521 125.868H244.184C248.107 125.868 251.287 122.688 251.287 118.766V59.1027C251.287 55.18 248.107 52 244.184 52Z" fill="#C8CBD3"/>
<path d="M244.184 52H184.521C180.599 52 177.419 55.18 177.419 59.1027V118.766C177.419 122.688 180.599 125.868 184.521 125.868H244.184C248.107 125.868 251.287 122.688 251.287 118.766V59.1027C251.287 55.18 248.107 52 244.184 52Z" fill="#C8CBD3"/>
<path d="M235.661 56.2616H193.045C189.122 56.2616 185.942 59.4416 185.942 63.3644V105.981C185.942 109.903 189.122 113.083 193.045 113.083H235.661C239.584 113.083 242.764 109.903 242.764 105.981V63.3644C242.764 59.4416 239.584 56.2616 235.661 56.2616Z" fill="#F8FBFF"/>
<path d="M235.661 56.2616H193.045C189.122 56.2616 185.942 59.4416 185.942 63.3644V105.981C185.942 109.903 189.122 113.083 193.045 113.083H235.661C239.584 113.083 242.764 109.903 242.764 105.981V63.3644C242.764 59.4416 239.584 56.2616 235.661 56.2616Z" fill="#F8FBFF"/>
<path d="M896.214 52H836.551C832.628 52 829.448 55.18 829.448 59.1027V118.766C829.448 122.688 832.628 125.868 836.551 125.868H896.214C900.137 125.868 903.317 122.688 903.317 118.766V59.1027C903.317 55.18 900.137 52 896.214 52Z" fill="#C8CBD3"/>
<path d="M896.214 52H836.551C832.628 52 829.448 55.18 829.448 59.1027V118.766C829.448 122.688 832.628 125.868 836.551 125.868H896.214C900.137 125.868 903.317 122.688 903.317 118.766V59.1027C903.317 55.18 900.137 52 896.214 52Z" fill="#C8CBD3"/>
<path d="M887.691 56.2616H845.075C841.152 56.2616 837.972 59.4416 837.972 63.3644V105.981C837.972 109.903 841.152 113.083 845.075 113.083H887.691C891.614 113.083 894.794 109.903 894.794 105.981V63.3644C894.794 59.4416 891.614 56.2616 887.691 56.2616Z" fill="#F8FBFF"/>
<path d="M887.691 56.2616H845.075C841.152 56.2616 837.972 59.4416 837.972 63.3644V105.981C837.972 109.903 841.152 113.083 845.075 113.083H887.691C891.614 113.083 894.794 109.903 894.794 105.981V63.3644C894.794 59.4416 891.614 56.2616 887.691 56.2616Z" fill="#F8FBFF"/>
<path d="M167.475 71.1773H107.812C103.889 71.1773 100.709 74.3573 100.709 78.2801V137.943C100.709 141.866 103.889 145.046 107.812 145.046H167.475C171.398 145.046 174.578 141.866 174.578 137.943V78.2801C174.578 74.3573 171.398 71.1773 167.475 71.1773Z" fill="#C8CBD3"/>
<path d="M167.475 71.1773H107.812C103.889 71.1773 100.709 74.3573 100.709 78.2801V137.943C100.709 141.866 103.889 145.046 107.812 145.046H167.475C171.398 145.046 174.578 141.866 174.578 137.943V78.2801C174.578 74.3573 171.398 71.1773 167.475 71.1773Z" fill="#C8CBD3"/>
<path d="M158.952 75.439H116.335C112.413 75.439 109.233 78.619 109.233 82.5417V125.158C109.233 129.081 112.413 132.261 116.335 132.261H158.952C162.874 132.261 166.054 129.081 166.054 125.158V82.5417C166.054 78.619 162.874 75.439 158.952 75.439Z" fill="#F8FBFF"/>
<path d="M158.952 75.439H116.335C112.413 75.439 109.233 78.619 109.233 82.5417V125.158C109.233 129.081 112.413 132.261 116.335 132.261H158.952C162.874 132.261 166.054 129.081 166.054 125.158V82.5417C166.054 78.619 162.874 75.439 158.952 75.439Z" fill="#F8FBFF"/>
<path d="M320.894 71.1773H261.231C257.308 71.1773 254.128 74.3573 254.128 78.2801V137.943C254.128 141.866 257.308 145.046 261.231 145.046H320.894C324.816 145.046 327.996 141.866 327.996 137.943V78.2801C327.996 74.3573 324.816 71.1773 320.894 71.1773Z" fill="#C8CBD3"/>
<path d="M320.894 71.1773H261.231C257.308 71.1773 254.128 74.3573 254.128 78.2801V137.943C254.128 141.866 257.308 145.046 261.231 145.046H320.894C324.816 145.046 327.996 141.866 327.996 137.943V78.2801C327.996 74.3573 324.816 71.1773 320.894 71.1773Z" fill="#C8CBD3"/>
<path d="M312.371 75.439H269.754C265.831 75.439 262.651 78.619 262.651 82.5417V125.158C262.651 129.081 265.831 132.261 269.754 132.261H312.371C316.293 132.261 319.473 129.081 319.473 125.158V82.5417C319.473 78.619 316.293 75.439 312.371 75.439Z" fill="#F8FBFF"/>
<path d="M312.371 75.439H269.754C265.831 75.439 262.651 78.619 262.651 82.5417V125.158C262.651 129.081 265.831 132.261 269.754 132.261H312.371C316.293 132.261 319.473 129.081 319.473 125.158V82.5417C319.473 78.619 316.293 75.439 312.371 75.439Z" fill="#F8FBFF"/>
<path d="M819.505 71.1773H759.842C755.919 71.1773 752.739 74.3573 752.739 78.2801V137.943C752.739 141.866 755.919 145.046 759.842 145.046H819.505C823.427 145.046 826.607 141.866 826.607 137.943V78.2801C826.607 74.3573 823.427 71.1773 819.505 71.1773Z" fill="#C8CBD3"/>
<path d="M819.505 71.1773H759.842C755.919 71.1773 752.739 74.3573 752.739 78.2801V137.943C752.739 141.866 755.919 145.046 759.842 145.046H819.505C823.427 145.046 826.607 141.866 826.607 137.943V78.2801C826.607 74.3573 823.427 71.1773 819.505 71.1773Z" fill="#C8CBD3"/>
<path d="M810.981 75.439H768.365C764.442 75.439 761.262 78.619 761.262 82.5417V125.158C761.262 129.081 764.442 132.261 768.365 132.261H810.981C814.904 132.261 818.084 129.081 818.084 125.158V82.5417C818.084 78.619 814.904 75.439 810.981 75.439Z" fill="#F8FBFF"/>
<path d="M810.981 75.439H768.365C764.442 75.439 761.262 78.619 761.262 82.5417V125.158C761.262 129.081 764.442 132.261 768.365 132.261H810.981C814.904 132.261 818.084 129.081 818.084 125.158V82.5417C818.084 78.619 814.904 75.439 810.981 75.439Z" fill="#F8FBFF"/>
<path d="M972.923 71.1773H913.26C909.338 71.1773 906.158 74.3573 906.158 78.2801V137.943C906.158 141.866 909.338 145.046 913.26 145.046H972.923C976.846 145.046 980.026 141.866 980.026 137.943V78.2801C980.026 74.3573 976.846 71.1773 972.923 71.1773Z" fill="#C8CBD3"/>
<path d="M972.923 71.1773H913.26C909.338 71.1773 906.158 74.3573 906.158 78.2801V137.943C906.158 141.866 909.338 145.046 913.26 145.046H972.923C976.846 145.046 980.026 141.866 980.026 137.943V78.2801C980.026 74.3573 976.846 71.1773 972.923 71.1773Z" fill="#C8CBD3"/>
<path d="M964.4 75.439H921.784C917.861 75.439 914.681 78.619 914.681 82.5417V125.158C914.681 129.081 917.861 132.261 921.784 132.261H964.4C968.323 132.261 971.503 129.081 971.503 125.158V82.5417C971.503 78.619 968.323 75.439 964.4 75.439Z" fill="#F8FBFF"/>
<path d="M964.4 75.439H921.784C917.861 75.439 914.681 78.619 914.681 82.5417V125.158C914.681 129.081 917.861 132.261 921.784 132.261H964.4C968.323 132.261 971.503 129.081 971.503 125.158V82.5417C971.503 78.619 968.323 75.439 964.4 75.439Z" fill="#F8FBFF"/>
<path d="M90.7656 90.3547H31.1027C27.18 90.3547 24 93.5347 24 97.4574V157.12C24 161.043 27.18 164.223 31.1027 164.223H90.7656C94.6883 164.223 97.8683 161.043 97.8683 157.12V97.4574C97.8683 93.5347 94.6883 90.3547 90.7656 90.3547Z" fill="#C8CBD3"/>
<path d="M90.7656 90.3547H31.1027C27.18 90.3547 24 93.5347 24 97.4574V157.12C24 161.043 27.18 164.223 31.1027 164.223H90.7656C94.6883 164.223 97.8683 161.043 97.8683 157.12V97.4574C97.8683 93.5347 94.6883 90.3547 90.7656 90.3547Z" fill="#C8CBD3"/>
<path d="M82.2424 94.6163H39.626C35.7033 94.6163 32.5233 97.7963 32.5233 101.719V144.335C32.5233 148.258 35.7033 151.438 39.626 151.438H82.2424C86.1651 151.438 89.3451 148.258 89.3451 144.335V101.719C89.3451 97.7963 86.1651 94.6163 82.2424 94.6163Z" fill="#F8FBFF"/>
<path d="M82.2424 94.6163H39.626C35.7033 94.6163 32.5233 97.7963 32.5233 101.719V144.335C32.5233 148.258 35.7033 151.438 39.626 151.438H82.2424C86.1651 151.438 89.3451 148.258 89.3451 144.335V101.719C89.3451 97.7963 86.1651 94.6163 82.2424 94.6163Z" fill="#F8FBFF"/>
<path d="M397.603 90.3547H337.94C334.018 90.3547 330.838 93.5347 330.838 97.4574V157.12C330.838 161.043 334.018 164.223 337.94 164.223H397.603C401.526 164.223 404.706 161.043 404.706 157.12V97.4574C404.706 93.5347 401.526 90.3547 397.603 90.3547Z" fill="#C8CBD3"/>
<path d="M397.603 90.3547H337.94C334.018 90.3547 330.838 93.5347 330.838 97.4574V157.12C330.838 161.043 334.018 164.223 337.94 164.223H397.603C401.526 164.223 404.706 161.043 404.706 157.12V97.4574C404.706 93.5347 401.526 90.3547 397.603 90.3547Z" fill="#C8CBD3"/>
<path d="M389.08 94.6163H346.464C342.541 94.6163 339.361 97.7963 339.361 101.719V144.335C339.361 148.258 342.541 151.438 346.464 151.438H389.08C393.003 151.438 396.183 148.258 396.183 144.335V101.719C396.183 97.7963 393.003 94.6163 389.08 94.6163Z" fill="#F8FBFF"/>
<path d="M389.08 94.6163H346.464C342.541 94.6163 339.361 97.7963 339.361 101.719V144.335C339.361 148.258 342.541 151.438 346.464 151.438H389.08C393.003 151.438 396.183 148.258 396.183 144.335V101.719C396.183 97.7963 393.003 94.6163 389.08 94.6163Z" fill="#F8FBFF"/>
<path d="M742.795 90.3547H683.133C679.21 90.3547 676.03 93.5347 676.03 97.4574V157.12C676.03 161.043 679.21 164.223 683.133 164.223H742.795C746.718 164.223 749.898 161.043 749.898 157.12V97.4574C749.898 93.5347 746.718 90.3547 742.795 90.3547Z" fill="#C8CBD3"/>
<path d="M742.795 90.3547H683.133C679.21 90.3547 676.03 93.5347 676.03 97.4574V157.12C676.03 161.043 679.21 164.223 683.133 164.223H742.795C746.718 164.223 749.898 161.043 749.898 157.12V97.4574C749.898 93.5347 746.718 90.3547 742.795 90.3547Z" fill="#C8CBD3"/>
<path d="M734.272 94.6163H691.655C687.733 94.6163 684.553 97.7963 684.553 101.719V144.335C684.553 148.258 687.733 151.438 691.655 151.438H734.272C738.194 151.438 741.374 148.258 741.374 144.335V101.719C741.374 97.7963 738.194 94.6163 734.272 94.6163Z" fill="#F8FBFF"/>
<path d="M734.272 94.6163H691.655C687.733 94.6163 684.553 97.7963 684.553 101.719V144.335C684.553 148.258 687.733 151.438 691.655 151.438H734.272C738.194 151.438 741.374 148.258 741.374 144.335V101.719C741.374 97.7963 738.194 94.6163 734.272 94.6163Z" fill="#F8FBFF"/>
<path d="M1049.63 90.3547H989.97C986.047 90.3547 982.867 93.5347 982.867 97.4574V157.12C982.867 161.043 986.047 164.223 989.97 164.223H1049.63C1053.56 164.223 1056.74 161.043 1056.74 157.12V97.4574C1056.74 93.5347 1053.56 90.3547 1049.63 90.3547Z" fill="#C8CBD3"/>
<path d="M1049.63 90.3547H989.97C986.047 90.3547 982.867 93.5347 982.867 97.4574V157.12C982.867 161.043 986.047 164.223 989.97 164.223H1049.63C1053.56 164.223 1056.74 161.043 1056.74 157.12V97.4574C1056.74 93.5347 1053.56 90.3547 1049.63 90.3547Z" fill="#C8CBD3"/>
<path d="M1041.11 94.6163H998.493C994.57 94.6163 991.39 97.7963 991.39 101.719V144.335C991.39 148.258 994.57 151.438 998.493 151.438H1041.11C1045.03 151.438 1048.21 148.258 1048.21 144.335V101.719C1048.21 97.7963 1045.03 94.6163 1041.11 94.6163Z" fill="#F8FBFF"/>
<path d="M1041.11 94.6163H998.493C994.57 94.6163 991.39 97.7963 991.39 101.719V144.335C991.39 148.258 994.57 151.438 998.493 151.438H1041.11C1045.03 151.438 1048.21 148.258 1048.21 144.335V101.719C1048.21 97.7963 1045.03 94.6163 1041.11 94.6163Z" fill="#F8FBFF"/>
<path d="M244.184 128.709H184.521C180.599 128.709 177.419 131.889 177.419 135.812V195.475C177.419 199.398 180.599 202.578 184.521 202.578H244.184C248.107 202.578 251.287 199.398 251.287 195.475V135.812C251.287 131.889 248.107 128.709 244.184 128.709Z" fill="#C8CBD3"/>
<path d="M244.184 128.709H184.521C180.599 128.709 177.419 131.889 177.419 135.812V195.475C177.419 199.398 180.599 202.578 184.521 202.578H244.184C248.107 202.578 251.287 199.398 251.287 195.475V135.812C251.287 131.889 248.107 128.709 244.184 128.709Z" fill="#C8CBD3"/>
<path d="M235.661 132.971H193.045C189.122 132.971 185.942 136.151 185.942 140.074V182.69C185.942 186.613 189.122 189.793 193.045 189.793H235.661C239.584 189.793 242.764 186.613 242.764 182.69V140.074C242.764 136.151 239.584 132.971 235.661 132.971Z" fill="#F8FBFF"/>
<path d="M235.661 132.971H193.045C189.122 132.971 185.942 136.151 185.942 140.074V182.69C185.942 186.613 189.122 189.793 193.045 189.793H235.661C239.584 189.793 242.764 186.613 242.764 182.69V140.074C242.764 136.151 239.584 132.971 235.661 132.971Z" fill="#F8FBFF"/>
<path d="M896.214 128.709H836.551C832.628 128.709 829.448 131.889 829.448 135.812V195.475C829.448 199.398 832.628 202.578 836.551 202.578H896.214C900.137 202.578 903.317 199.398 903.317 195.475V135.812C903.317 131.889 900.137 128.709 896.214 128.709Z" fill="#C8CBD3"/>
<path d="M896.214 128.709H836.551C832.628 128.709 829.448 131.889 829.448 135.812V195.475C829.448 199.398 832.628 202.578 836.551 202.578H896.214C900.137 202.578 903.317 199.398 903.317 195.475V135.812C903.317 131.889 900.137 128.709 896.214 128.709Z" fill="#C8CBD3"/>
<path d="M887.691 132.971H845.075C841.152 132.971 837.972 136.151 837.972 140.074V182.69C837.972 186.613 841.152 189.793 845.075 189.793H887.691C891.614 189.793 894.794 186.613 894.794 182.69V140.074C894.794 136.151 891.614 132.971 887.691 132.971Z" fill="#F8FBFF"/>
<path d="M887.691 132.971H845.075C841.152 132.971 837.972 136.151 837.972 140.074V182.69C837.972 186.613 841.152 189.793 845.075 189.793H887.691C891.614 189.793 894.794 186.613 894.794 182.69V140.074C894.794 136.151 891.614 132.971 887.691 132.971Z" fill="#F8FBFF"/>
<path d="M167.475 147.887H107.812C103.889 147.887 100.709 151.067 100.709 154.989V214.652C100.709 218.575 103.889 221.755 107.812 221.755H167.475C171.398 221.755 174.578 218.575 174.578 214.652V154.989C174.578 151.067 171.398 147.887 167.475 147.887Z" fill="#C8CBD3"/>
<path d="M167.475 147.887H107.812C103.889 147.887 100.709 151.067 100.709 154.989V214.652C100.709 218.575 103.889 221.755 107.812 221.755H167.475C171.398 221.755 174.578 218.575 174.578 214.652V154.989C174.578 151.067 171.398 147.887 167.475 147.887Z" fill="#C8CBD3"/>
<path d="M158.952 152.148H116.335C112.413 152.148 109.233 155.328 109.233 159.251V201.867C109.233 205.79 112.413 208.97 116.335 208.97H158.952C162.874 208.97 166.054 205.79 166.054 201.867V159.251C166.054 155.328 162.874 152.148 158.952 152.148Z" fill="#F8FBFF"/>
<path d="M158.952 152.148H116.335C112.413 152.148 109.233 155.328 109.233 159.251V201.867C109.233 205.79 112.413 208.97 116.335 208.97H158.952C162.874 208.97 166.054 205.79 166.054 201.867V159.251C166.054 155.328 162.874 152.148 158.952 152.148Z" fill="#F8FBFF"/>
<path d="M320.894 147.887H261.231C257.308 147.887 254.128 151.067 254.128 154.989V214.652C254.128 218.575 257.308 221.755 261.231 221.755H320.894C324.816 221.755 327.996 218.575 327.996 214.652V154.989C327.996 151.067 324.816 147.887 320.894 147.887Z" fill="#C8CBD3"/>
<path d="M320.894 147.887H261.231C257.308 147.887 254.128 151.067 254.128 154.989V214.652C254.128 218.575 257.308 221.755 261.231 221.755H320.894C324.816 221.755 327.996 218.575 327.996 214.652V154.989C327.996 151.067 324.816 147.887 320.894 147.887Z" fill="#C8CBD3"/>
<path d="M312.371 152.148H269.754C265.831 152.148 262.651 155.328 262.651 159.251V201.867C262.651 205.79 265.831 208.97 269.754 208.97H312.371C316.293 208.97 319.473 205.79 319.473 201.867V159.251C319.473 155.328 316.293 152.148 312.371 152.148Z" fill="#F8FBFF"/>
<path d="M312.371 152.148H269.754C265.831 152.148 262.651 155.328 262.651 159.251V201.867C262.651 205.79 265.831 208.97 269.754 208.97H312.371C316.293 208.97 319.473 205.79 319.473 201.867V159.251C319.473 155.328 316.293 152.148 312.371 152.148Z" fill="#F8FBFF"/>
<path d="M819.505 147.887H759.842C755.919 147.887 752.739 151.067 752.739 154.989V214.652C752.739 218.575 755.919 221.755 759.842 221.755H819.505C823.427 221.755 826.607 218.575 826.607 214.652V154.989C826.607 151.067 823.427 147.887 819.505 147.887Z" fill="#C8CBD3"/>
<path d="M819.505 147.887H759.842C755.919 147.887 752.739 151.067 752.739 154.989V214.652C752.739 218.575 755.919 221.755 759.842 221.755H819.505C823.427 221.755 826.607 218.575 826.607 214.652V154.989C826.607 151.067 823.427 147.887 819.505 147.887Z" fill="#C8CBD3"/>
<path d="M810.981 152.148H768.365C764.442 152.148 761.262 155.328 761.262 159.251V201.867C761.262 205.79 764.442 208.97 768.365 208.97H810.981C814.904 208.97 818.084 205.79 818.084 201.867V159.251C818.084 155.328 814.904 152.148 810.981 152.148Z" fill="#F8FBFF"/>
<path d="M810.981 152.148H768.365C764.442 152.148 761.262 155.328 761.262 159.251V201.867C761.262 205.79 764.442 208.97 768.365 208.97H810.981C814.904 208.97 818.084 205.79 818.084 201.867V159.251C818.084 155.328 814.904 152.148 810.981 152.148Z" fill="#F8FBFF"/>
<path d="M972.923 147.887H913.26C909.338 147.887 906.158 151.067 906.158 154.989V214.652C906.158 218.575 909.338 221.755 913.26 221.755H972.923C976.846 221.755 980.026 218.575 980.026 214.652V154.989C980.026 151.067 976.846 147.887 972.923 147.887Z" fill="#C8CBD3"/>
<path d="M972.923 147.887H913.26C909.338 147.887 906.158 151.067 906.158 154.989V214.652C906.158 218.575 909.338 221.755 913.26 221.755H972.923C976.846 221.755 980.026 218.575 980.026 214.652V154.989C980.026 151.067 976.846 147.887 972.923 147.887Z" fill="#C8CBD3"/>
<path d="M964.4 152.148H921.784C917.861 152.148 914.681 155.328 914.681 159.251V201.867C914.681 205.79 917.861 208.97 921.784 208.97H964.4C968.323 208.97 971.503 205.79 971.503 201.867V159.251C971.503 155.328 968.323 152.148 964.4 152.148Z" fill="#F8FBFF"/>
<path d="M964.4 152.148H921.784C917.861 152.148 914.681 155.328 914.681 159.251V201.867C914.681 205.79 917.861 208.97 921.784 208.97H964.4C968.323 208.97 971.503 205.79 971.503 201.867V159.251C971.503 155.328 968.323 152.148 964.4 152.148Z" fill="#F8FBFF"/>
<path d="M90.7656 167.064H31.1027C27.18 167.064 24 170.244 24 174.167V233.83C24 237.752 27.18 240.932 31.1027 240.932H90.7656C94.6883 240.932 97.8683 237.752 97.8683 233.83V174.167C97.8683 170.244 94.6883 167.064 90.7656 167.064Z" fill="#C8CBD3"/>
<path d="M90.7656 167.064H31.1027C27.18 167.064 24 170.244 24 174.167V233.83C24 237.752 27.18 240.932 31.1027 240.932H90.7656C94.6883 240.932 97.8683 237.752 97.8683 233.83V174.167C97.8683 170.244 94.6883 167.064 90.7656 167.064Z" fill="#C8CBD3"/>
<path d="M82.2424 171.326H39.626C35.7033 171.326 32.5233 174.506 32.5233 178.428V221.045C32.5233 224.967 35.7033 228.147 39.626 228.147H82.2424C86.1651 228.147 89.3451 224.967 89.3451 221.045V178.428C89.3451 174.506 86.1651 171.326 82.2424 171.326Z" fill="#F8FBFF"/>
<path d="M82.2424 171.326H39.626C35.7033 171.326 32.5233 174.506 32.5233 178.428V221.045C32.5233 224.967 35.7033 228.147 39.626 228.147H82.2424C86.1651 228.147 89.3451 224.967 89.3451 221.045V178.428C89.3451 174.506 86.1651 171.326 82.2424 171.326Z" fill="#F8FBFF"/>
<path d="M397.603 167.064H337.94C334.018 167.064 330.838 170.244 330.838 174.167V233.83C330.838 237.752 334.018 240.932 337.94 240.932H397.603C401.526 240.932 404.706 237.752 404.706 233.83V174.167C404.706 170.244 401.526 167.064 397.603 167.064Z" fill="#C8CBD3"/>
<path d="M397.603 167.064H337.94C334.018 167.064 330.838 170.244 330.838 174.167V233.83C330.838 237.752 334.018 240.932 337.94 240.932H397.603C401.526 240.932 404.706 237.752 404.706 233.83V174.167C404.706 170.244 401.526 167.064 397.603 167.064Z" fill="#C8CBD3"/>
<path d="M389.08 171.326H346.464C342.541 171.326 339.361 174.506 339.361 178.428V221.045C339.361 224.967 342.541 228.147 346.464 228.147H389.08C393.003 228.147 396.183 224.967 396.183 221.045V178.428C396.183 174.506 393.003 171.326 389.08 171.326Z" fill="#F8FBFF"/>
<path d="M389.08 171.326H346.464C342.541 171.326 339.361 174.506 339.361 178.428V221.045C339.361 224.967 342.541 228.147 346.464 228.147H389.08C393.003 228.147 396.183 224.967 396.183 221.045V178.428C396.183 174.506 393.003 171.326 389.08 171.326Z" fill="#F8FBFF"/>
<path d="M742.795 167.064H683.133C679.21 167.064 676.03 170.244 676.03 174.167V233.83C676.03 237.752 679.21 240.932 683.133 240.932H742.795C746.718 240.932 749.898 237.752 749.898 233.83V174.167C749.898 170.244 746.718 167.064 742.795 167.064Z" fill="#C8CBD3"/>
<path d="M742.795 167.064H683.133C679.21 167.064 676.03 170.244 676.03 174.167V233.83C676.03 237.752 679.21 240.932 683.133 240.932H742.795C746.718 240.932 749.898 237.752 749.898 233.83V174.167C749.898 170.244 746.718 167.064 742.795 167.064Z" fill="#C8CBD3"/>
<path d="M734.272 171.326H691.655C687.733 171.326 684.553 174.506 684.553 178.428V221.045C684.553 224.967 687.733 228.147 691.655 228.147H734.272C738.194 228.147 741.374 224.967 741.374 221.045V178.428C741.374 174.506 738.194 171.326 734.272 171.326Z" fill="#F8FBFF"/>
<path d="M734.272 171.326H691.655C687.733 171.326 684.553 174.506 684.553 178.428V221.045C684.553 224.967 687.733 228.147 691.655 228.147H734.272C738.194 228.147 741.374 224.967 741.374 221.045V178.428C741.374 174.506 738.194 171.326 734.272 171.326Z" fill="#F8FBFF"/>
<path d="M1049.63 167.064H989.97C986.047 167.064 982.867 170.244 982.867 174.167V233.83C982.867 237.752 986.047 240.932 989.97 240.932H1049.63C1053.56 240.932 1056.74 237.752 1056.74 233.83V174.167C1056.74 170.244 1053.56 167.064 1049.63 167.064Z" fill="#C8CBD3"/>
<path d="M1049.63 167.064H989.97C986.047 167.064 982.867 170.244 982.867 174.167V233.83C982.867 237.752 986.047 240.932 989.97 240.932H1049.63C1053.56 240.932 1056.74 237.752 1056.74 233.83V174.167C1056.74 170.244 1053.56 167.064 1049.63 167.064Z" fill="#C8CBD3"/>
<path d="M1041.11 171.326H998.493C994.57 171.326 991.39 174.506 991.39 178.428V221.045C991.39 224.967 994.57 228.147 998.493 228.147H1041.11C1045.03 228.147 1048.21 224.967 1048.21 221.045V178.428C1048.21 174.506 1045.03 171.326 1041.11 171.326Z" fill="#F8FBFF"/>
<path d="M1041.11 171.326H998.493C994.57 171.326 991.39 174.506 991.39 178.428V221.045C991.39 224.967 994.57 228.147 998.493 228.147H1041.11C1045.03 228.147 1048.21 224.967 1048.21 221.045V178.428C1048.21 174.506 1045.03 171.326 1041.11 171.326Z" fill="#F8FBFF"/>
<path d="M244.184 205.419H184.521C180.599 205.419 177.419 208.599 177.419 212.521V272.184C177.419 276.107 180.599 279.287 184.521 279.287H244.184C248.107 279.287 251.287 276.107 251.287 272.184V212.521C251.287 208.599 248.107 205.419 244.184 205.419Z" fill="#C8CBD3"/>
<path d="M244.184 205.419H184.521C180.599 205.419 177.419 208.599 177.419 212.521V272.184C177.419 276.107 180.599 279.287 184.521 279.287H244.184C248.107 279.287 251.287 276.107 251.287 272.184V212.521C251.287 208.599 248.107 205.419 244.184 205.419Z" fill="#C8CBD3"/>
<path d="M235.661 209.68H193.045C189.122 209.68 185.942 212.86 185.942 216.783V259.399C185.942 263.322 189.122 266.502 193.045 266.502H235.661C239.584 266.502 242.764 263.322 242.764 259.399V216.783C242.764 212.86 239.584 209.68 235.661 209.68Z" fill="#F8FBFF"/>
<path d="M235.661 209.68H193.045C189.122 209.68 185.942 212.86 185.942 216.783V259.399C185.942 263.322 189.122 266.502 193.045 266.502H235.661C239.584 266.502 242.764 263.322 242.764 259.399V216.783C242.764 212.86 239.584 209.68 235.661 209.68Z" fill="#F8FBFF"/>
<path d="M896.214 205.419H836.551C832.628 205.419 829.448 208.599 829.448 212.521V272.184C829.448 276.107 832.628 279.287 836.551 279.287H896.214C900.137 279.287 903.317 276.107 903.317 272.184V212.521C903.317 208.599 900.137 205.419 896.214 205.419Z" fill="#C8CBD3"/>
<path d="M896.214 205.419H836.551C832.628 205.419 829.448 208.599 829.448 212.521V272.184C829.448 276.107 832.628 279.287 836.551 279.287H896.214C900.137 279.287 903.317 276.107 903.317 272.184V212.521C903.317 208.599 900.137 205.419 896.214 205.419Z" fill="#C8CBD3"/>
<path d="M887.691 209.68H845.075C841.152 209.68 837.972 212.86 837.972 216.783V259.399C837.972 263.322 841.152 266.502 845.075 266.502H887.691C891.614 266.502 894.794 263.322 894.794 259.399V216.783C894.794 212.86 891.614 209.68 887.691 209.68Z" fill="#F8FBFF"/>
<path d="M887.691 209.68H845.075C841.152 209.68 837.972 212.86 837.972 216.783V259.399C837.972 263.322 841.152 266.502 845.075 266.502H887.691C891.614 266.502 894.794 263.322 894.794 259.399V216.783C894.794 212.86 891.614 209.68 887.691 209.68Z" fill="#F8FBFF"/>
<path d="M167.475 224.596H107.812C103.889 224.596 100.709 227.776 100.709 231.699V291.362C100.709 295.284 103.889 298.464 107.812 298.464H167.475C171.398 298.464 174.578 295.284 174.578 291.362V231.699C174.578 227.776 171.398 224.596 167.475 224.596Z" fill="#C8CBD3"/>
<path d="M167.475 224.596H107.812C103.889 224.596 100.709 227.776 100.709 231.699V291.362C100.709 295.284 103.889 298.464 107.812 298.464H167.475C171.398 298.464 174.578 295.284 174.578 291.362V231.699C174.578 227.776 171.398 224.596 167.475 224.596Z" fill="#C8CBD3"/>
<path d="M158.952 228.858H116.335C112.413 228.858 109.233 232.038 109.233 235.96V278.577C109.233 282.499 112.413 285.679 116.335 285.679H158.952C162.874 285.679 166.054 282.499 166.054 278.577V235.96C166.054 232.038 162.874 228.858 158.952 228.858Z" fill="#F8FBFF"/>
<path d="M158.952 228.858H116.335C112.413 228.858 109.233 232.038 109.233 235.96V278.577C109.233 282.499 112.413 285.679 116.335 285.679H158.952C162.874 285.679 166.054 282.499 166.054 278.577V235.96C166.054 232.038 162.874 228.858 158.952 228.858Z" fill="#F8FBFF"/>
<path d="M320.894 224.596H261.231C257.308 224.596 254.128 227.776 254.128 231.699V291.362C254.128 295.284 257.308 298.464 261.231 298.464H320.894C324.816 298.464 327.996 295.284 327.996 291.362V231.699C327.996 227.776 324.816 224.596 320.894 224.596Z" fill="#C8CBD3"/>
<path d="M320.894 224.596H261.231C257.308 224.596 254.128 227.776 254.128 231.699V291.362C254.128 295.284 257.308 298.464 261.231 298.464H320.894C324.816 298.464 327.996 295.284 327.996 291.362V231.699C327.996 227.776 324.816 224.596 320.894 224.596Z" fill="#C8CBD3"/>
<path d="M312.371 228.858H269.754C265.831 228.858 262.651 232.038 262.651 235.96V278.577C262.651 282.499 265.831 285.679 269.754 285.679H312.371C316.293 285.679 319.473 282.499 319.473 278.577V235.96C319.473 232.038 316.293 228.858 312.371 228.858Z" fill="#F8FBFF"/>
<path d="M312.371 228.858H269.754C265.831 228.858 262.651 232.038 262.651 235.96V278.577C262.651 282.499 265.831 285.679 269.754 285.679H312.371C316.293 285.679 319.473 282.499 319.473 278.577V235.96C319.473 232.038 316.293 228.858 312.371 228.858Z" fill="#F8FBFF"/>
<path d="M819.505 224.596H759.842C755.919 224.596 752.739 227.776 752.739 231.699V291.362C752.739 295.284 755.919 298.464 759.842 298.464H819.505C823.427 298.464 826.607 295.284 826.607 291.362V231.699C826.607 227.776 823.427 224.596 819.505 224.596Z" fill="#C8CBD3"/>
<path d="M819.505 224.596H759.842C755.919 224.596 752.739 227.776 752.739 231.699V291.362C752.739 295.284 755.919 298.464 759.842 298.464H819.505C823.427 298.464 826.607 295.284 826.607 291.362V231.699C826.607 227.776 823.427 224.596 819.505 224.596Z" fill="#C8CBD3"/>
<path d="M810.981 228.858H768.365C764.442 228.858 761.262 232.038 761.262 235.96V278.577C761.262 282.499 764.442 285.679 768.365 285.679H810.981C814.904 285.679 818.084 282.499 818.084 278.577V235.96C818.084 232.038 814.904 228.858 810.981 228.858Z" fill="#F8FBFF"/>
<path d="M810.981 228.858H768.365C764.442 228.858 761.262 232.038 761.262 235.96V278.577C761.262 282.499 764.442 285.679 768.365 285.679H810.981C814.904 285.679 818.084 282.499 818.084 278.577V235.96C818.084 232.038 814.904 228.858 810.981 228.858Z" fill="#F8FBFF"/>
<path d="M972.923 224.596H913.26C909.338 224.596 906.158 227.776 906.158 231.699V291.362C906.158 295.284 909.338 298.464 913.26 298.464H972.923C976.846 298.464 980.026 295.284 980.026 291.362V231.699C980.026 227.776 976.846 224.596 972.923 224.596Z" fill="#C8CBD3"/>
<path d="M972.923 224.596H913.26C909.338 224.596 906.158 227.776 906.158 231.699V291.362C906.158 295.284 909.338 298.464 913.26 298.464H972.923C976.846 298.464 980.026 295.284 980.026 291.362V231.699C980.026 227.776 976.846 224.596 972.923 224.596Z" fill="#C8CBD3"/>
<path d="M964.4 228.858H921.784C917.861 228.858 914.681 232.038 914.681 235.96V278.577C914.681 282.499 917.861 285.679 921.784 285.679H964.4C968.323 285.679 971.503 282.499 971.503 278.577V235.96C971.503 232.038 968.323 228.858 964.4 228.858Z" fill="#F8FBFF"/>
<path d="M964.4 228.858H921.784C917.861 228.858 914.681 232.038 914.681 235.96V278.577C914.681 282.499 917.861 285.679 921.784 285.679H964.4C968.323 285.679 971.503 282.499 971.503 278.577V235.96C971.503 232.038 968.323 228.858 964.4 228.858Z" fill="#F8FBFF"/>
<path d="M90.7656 243.773H31.1027C27.18 243.773 24 246.953 24 250.876V310.539C24 314.462 27.18 317.642 31.1027 317.642H90.7656C94.6883 317.642 97.8683 314.462 97.8683 310.539V250.876C97.8683 246.953 94.6883 243.773 90.7656 243.773Z" fill="#C8CBD3"/>
<path d="M90.7656 243.773H31.1027C27.18 243.773 24 246.953 24 250.876V310.539C24 314.462 27.18 317.642 31.1027 317.642H90.7656C94.6883 317.642 97.8683 314.462 97.8683 310.539V250.876C97.8683 246.953 94.6883 243.773 90.7656 243.773Z" fill="#C8CBD3"/>
<path d="M82.2424 248.035H39.626C35.7033 248.035 32.5233 251.215 32.5233 255.138V297.754C32.5233 301.677 35.7033 304.857 39.626 304.857H82.2424C86.1651 304.857 89.3451 301.677 89.3451 297.754V255.138C89.3451 251.215 86.1651 248.035 82.2424 248.035Z" fill="#F8FBFF"/>
<path d="M82.2424 248.035H39.626C35.7033 248.035 32.5233 251.215 32.5233 255.138V297.754C32.5233 301.677 35.7033 304.857 39.626 304.857H82.2424C86.1651 304.857 89.3451 301.677 89.3451 297.754V255.138C89.3451 251.215 86.1651 248.035 82.2424 248.035Z" fill="#F8FBFF"/>
<path d="M397.603 243.773H337.94C334.018 243.773 330.838 246.953 330.838 250.876V310.539C330.838 314.462 334.018 317.642 337.94 317.642H397.603C401.526 317.642 404.706 314.462 404.706 310.539V250.876C404.706 246.953 401.526 243.773 397.603 243.773Z" fill="#C8CBD3"/>
<path d="M397.603 243.773H337.94C334.018 243.773 330.838 246.953 330.838 250.876V310.539C330.838 314.462 334.018 317.642 337.94 317.642H397.603C401.526 317.642 404.706 314.462 404.706 310.539V250.876C404.706 246.953 401.526 243.773 397.603 243.773Z" fill="#C8CBD3"/>
<path d="M389.08 248.035H346.464C342.541 248.035 339.361 251.215 339.361 255.138V297.754C339.361 301.677 342.541 304.857 346.464 304.857H389.08C393.003 304.857 396.183 301.677 396.183 297.754V255.138C396.183 251.215 393.003 248.035 389.08 248.035Z" fill="#F8FBFF"/>
<path d="M389.08 248.035H346.464C342.541 248.035 339.361 251.215 339.361 255.138V297.754C339.361 301.677 342.541 304.857 346.464 304.857H389.08C393.003 304.857 396.183 301.677 396.183 297.754V255.138C396.183 251.215 393.003 248.035 389.08 248.035Z" fill="#F8FBFF"/>
<path d="M742.795 243.773H683.133C679.21 243.773 676.03 246.953 676.03 250.876V310.539C676.03 314.462 679.21 317.642 683.133 317.642H742.795C746.718 317.642 749.898 314.462 749.898 310.539V250.876C749.898 246.953 746.718 243.773 742.795 243.773Z" fill="#C8CBD3"/>
<path d="M742.795 243.773H683.133C679.21 243.773 676.03 246.953 676.03 250.876V310.539C676.03 314.462 679.21 317.642 683.133 317.642H742.795C746.718 317.642 749.898 314.462 749.898 310.539V250.876C749.898 246.953 746.718 243.773 742.795 243.773Z" fill="#C8CBD3"/>
<path d="M734.272 248.035H691.655C687.733 248.035 684.553 251.215 684.553 255.138V297.754C684.553 301.677 687.733 304.857 691.655 304.857H734.272C738.194 304.857 741.374 301.677 741.374 297.754V255.138C741.374 251.215 738.194 248.035 734.272 248.035Z" fill="#F8FBFF"/>
<path d="M734.272 248.035H691.655C687.733 248.035 684.553 251.215 684.553 255.138V297.754C684.553 301.677 687.733 304.857 691.655 304.857H734.272C738.194 304.857 741.374 301.677 741.374 297.754V255.138C741.374 251.215 738.194 248.035 734.272 248.035Z" fill="#F8FBFF"/>
<path d="M1049.63 243.773H989.97C986.047 243.773 982.867 246.953 982.867 250.876V310.539C982.867 314.462 986.047 317.642 989.97 317.642H1049.63C1053.56 317.642 1056.74 314.462 1056.74 310.539V250.876C1056.74 246.953 1053.56 243.773 1049.63 243.773Z" fill="#C8CBD3"/>
<path d="M1049.63 243.773H989.97C986.047 243.773 982.867 246.953 982.867 250.876V310.539C982.867 314.462 986.047 317.642 989.97 317.642H1049.63C1053.56 317.642 1056.74 314.462 1056.74 310.539V250.876C1056.74 246.953 1053.56 243.773 1049.63 243.773Z" fill="#C8CBD3"/>
<path d="M1041.11 248.035H998.493C994.57 248.035 991.39 251.215 991.39 255.138V297.754C991.39 301.677 994.57 304.857 998.493 304.857H1041.11C1045.03 304.857 1048.21 301.677 1048.21 297.754V255.138C1048.21 251.215 1045.03 248.035 1041.11 248.035Z" fill="#F8FBFF"/>
<path d="M1041.11 248.035H998.493C994.57 248.035 991.39 251.215 991.39 255.138V297.754C991.39 301.677 994.57 304.857 998.493 304.857H1041.11C1045.03 304.857 1048.21 301.677 1048.21 297.754V255.138C1048.21 251.215 1045.03 248.035 1041.11 248.035Z" fill="#F8FBFF"/>
<path d="M382.564 337.456L324.934 322.014C321.145 320.999 317.251 323.247 316.235 327.036L300.793 384.666C299.778 388.455 302.027 392.35 305.816 393.365L363.446 408.807C367.235 409.822 371.129 407.574 372.145 403.785L387.587 346.155C388.602 342.366 386.353 338.471 382.564 337.456Z" fill="#0084C2"/>
<path d="M382.564 337.456L324.934 322.014C321.145 320.999 317.251 323.247 316.235 327.036L300.793 384.666C299.778 388.455 302.027 392.35 305.816 393.365L363.446 408.807C367.235 409.822 371.129 407.574 372.145 403.785L387.587 346.155C388.602 342.366 386.353 338.471 382.564 337.456Z" fill="#0084C2"/>
<path d="M373.228 339.366L332.064 328.336C328.275 327.321 324.38 329.57 323.365 333.359L312.335 374.523C311.32 378.312 313.569 382.207 317.358 383.222L358.522 394.252C362.311 395.267 366.206 393.019 367.221 389.229L378.251 348.065C379.266 344.276 377.017 340.382 373.228 339.366Z" fill="#41A0E1"/>
<path d="M373.228 339.366L332.064 328.336C328.275 327.321 324.38 329.57 323.365 333.359L312.335 374.523C311.32 378.312 313.569 382.207 317.358 383.222L358.522 394.252C362.311 395.267 366.206 393.019 367.221 389.229L378.251 348.065C379.266 344.276 377.017 340.382 373.228 339.366Z" fill="#41A0E1"/>
<path d="M489.737 352.807L438.067 322.976C434.67 321.014 430.326 322.178 428.365 325.575L379.356 410.461C377.395 413.858 378.558 418.202 381.956 420.164L433.625 449.995C437.022 451.956 441.366 450.792 443.328 447.395L492.336 362.51C494.298 359.112 493.134 354.768 489.737 352.807Z" fill="#C8CBD3"/>
<path d="M489.737 352.807L438.067 322.976C434.67 321.014 430.326 322.178 428.365 325.575L379.356 410.461C377.395 413.858 378.558 418.202 381.956 420.164L433.625 449.995C437.022 451.956 441.366 450.792 443.328 447.395L492.336 362.51C494.298 359.112 493.134 354.768 489.737 352.807Z" fill="#C8CBD3"/>
<path d="M480.225 352.236L443.318 330.928C439.921 328.967 435.577 330.131 433.615 333.528L393.13 403.651C391.168 407.048 392.332 411.392 395.73 413.353L432.636 434.661C436.034 436.623 440.377 435.459 442.339 432.062L482.824 361.939C484.786 358.541 483.622 354.197 480.225 352.236Z" fill="#F8FBFF"/>
<path d="M480.225 352.236L443.318 330.928C439.921 328.967 435.577 330.131 433.615 333.528L393.13 403.651C391.168 407.048 392.332 411.392 395.73 413.353L432.636 434.661C436.034 436.623 440.377 435.459 442.339 432.062L482.824 361.939C484.786 358.541 483.622 354.197 480.225 352.236Z" fill="#F8FBFF"/>
<path d="M638.366 321.031L586.696 350.862C583.299 352.824 582.135 357.168 584.097 360.565L633.105 445.45C635.067 448.848 639.411 450.012 642.808 448.05L694.477 418.219C697.874 416.257 699.038 411.914 697.077 408.516L648.068 323.631C646.107 320.233 641.763 319.07 638.366 321.031Z" fill="#C8CBD3"/>
<path d="M638.366 321.031L586.696 350.862C583.299 352.824 582.135 357.168 584.097 360.565L633.105 445.45C635.067 448.848 639.411 450.012 642.808 448.05L694.477 418.219C697.874 416.257 699.038 411.914 697.077 408.516L648.068 323.631C646.107 320.233 641.763 319.07 638.366 321.031Z" fill="#C8CBD3"/>
<path d="M633.115 328.983L596.209 350.291C592.811 352.253 591.647 356.597 593.609 359.994L634.094 430.117C636.056 433.514 640.4 434.678 643.797 432.717L680.704 411.408C684.101 409.447 685.265 405.103 683.303 401.706L642.818 331.583C640.856 328.186 636.513 327.022 633.115 328.983Z" fill="#F8FBFF"/>
<path d="M633.115 328.983L596.209 350.291C592.811 352.253 591.647 356.597 593.609 359.994L634.094 430.117C636.056 433.514 640.4 434.678 643.797 432.717L680.704 411.408C684.101 409.447 685.265 405.103 683.303 401.706L642.818 331.583C640.856 328.186 636.513 327.022 633.115 328.983Z" fill="#F8FBFF"/>
<path d="M753.812 325.348L696.182 340.79C692.393 341.805 690.145 345.7 691.16 349.489L706.602 407.119C707.617 410.908 711.512 413.157 715.301 412.141L772.931 396.7C776.72 395.684 778.968 391.79 777.953 388.001L762.511 330.371C761.496 326.582 757.601 324.333 753.812 325.348Z" fill="#E5A100"/>
<path d="M753.812 325.348L696.182 340.79C692.393 341.805 690.145 345.7 691.16 349.489L706.602 407.119C707.617 410.908 711.512 413.157 715.301 412.141L772.931 396.7C776.72 395.684 778.968 391.79 777.953 388.001L762.511 330.371C761.496 326.582 757.601 324.333 753.812 325.348Z" fill="#E5A100"/>
<path d="M746.682 331.671L705.518 342.701C701.729 343.716 699.48 347.611 700.496 351.4L711.525 392.564C712.541 396.353 716.435 398.602 720.224 397.586L761.389 386.556C765.178 385.541 767.426 381.646 766.411 377.857L755.381 336.693C754.366 332.904 750.471 330.655 746.682 331.671Z" fill="#FFC93E"/>
<path d="M746.682 331.671L705.518 342.701C701.729 343.716 699.48 347.611 700.496 351.4L711.525 392.564C712.541 396.353 716.435 398.602 720.224 397.586L761.389 386.556C765.178 385.541 767.426 381.646 766.411 377.857L755.381 336.693C754.366 332.904 750.471 330.655 746.682 331.671Z" fill="#FFC93E"/>
</svg>
