<svg width="485" height="483" viewBox="0 0 485 483" fill="none" xmlns="http://www.w3.org/2000/svg">
<path d="M452.993 331.204H393.232V301.045H90.4815V332.341H30.1595V180.4H59.7508V121.216H89.9175V91.6213H121.213V60.892H180.967V29.5933H301.044V60.3227H361.368V92.192H391.524V120.645H422.827V180.968H452.993V331.204ZM393.232 422.829H361.936V454.131H121.213V423.964H89.9175V362.505H121.781V332.341H181.533V392.1H211.699V331.775H271.451V392.1H301.044V331.775H363.076V361.368H393.232V422.829ZM454.128 150.236V88.7773H422.545V60.892H392.671V30.164H333.477V0H150.805V29.5933H89.3441V60.892H60.3228V91.6213H29.5917V150.236H0V361.936H30.7292V392.667H60.8908V454.131H92.1908V482.578H393.805V452.423H423.395V391.527H451.852V362.505H484.284V150.236H454.128Z" fill="#100F0D"/>
<path d="M452.993 331.204H393.232V301.045H90.4815V332.341H30.1595V180.4H59.7508V121.216H89.9175V91.6213H121.213V60.892H180.967V29.5933H301.044V60.3227H361.368V92.192H391.524V120.645H422.827V180.968H452.993V331.204Z" fill="white"/>
<path d="M393.232 422.829H361.936V454.131H121.213V423.964H89.9175V362.505H121.781V332.341H181.533V392.1H211.699V331.775H271.451V392.1H301.044V331.775H363.076V361.368H393.232V422.829Z" fill="white"/>
<path d="M29.7637 332.499H90.6562V300.915H180.571V272.745H150.979V182.265H180.571V151.531H301.222V181.121H331.378V271.037H301.222V301.199H391.983V331.931H453.442V271.891H392.838V242.017H362.108V150.965H392.838V92.3479H361.54V121.372H302.358V91.2106H271.347V30.0306H211.3V90.6399H181.708V121.372H121.102V90.6399H89.8029V150.392H121.386V241.447H90.3695V271.037H30.3334L29.7637 332.499Z" fill="#ED1D24"/>
</svg>
